<svg xmlns="http://www.w3.org/2000/svg" xmlns:xlink="http://www.w3.org/1999/xlink" viewBox="0 0 684.85 733.3"><defs><style>.cls-1{fill:none;}.cls-2{fill:#c7d8dd;}.cls-3{fill:#83a9b2;}.cls-4{fill:#f4bd86;}.cls-5{clip-path:url(#clip-path);}.cls-6{fill:#c68142;}.cls-7{fill:#d8a83d;}.cls-8{fill:#1b1464;}.cls-9{fill:#fcfcfc;}.cls-10{fill:#68332f;}.cls-11{fill:#fff;}.cls-12{fill:#7da9bc;}.cls-13{fill:#cad8dd;}</style><clipPath id="clip-path"><ellipse class="cls-1" cx="444.22" cy="350.42" rx="241.7" ry="124.75" transform="translate(-36.1 51.39) rotate(-6.36)"/></clipPath></defs><g id="דוש"><ellipse class="cls-2" cx="639.09" cy="562.81" rx="5.09" ry="4.48"/><ellipse class="cls-2" cx="642.09" cy="668.81" rx="5.09" ry="4.48"/><ellipse class="cls-3" cx="634.09" cy="681.81" rx="2.5" ry="2.84" transform="matrix(0.13, -0.99, 0.99, 0.13, -123.36, 1223.28)"/><ellipse class="cls-3" cx="639.09" cy="581.81" rx="2.5" ry="2.84" transform="translate(-181.21 309.7) rotate(-23.96)"/><rect class="cls-4" x="264.57" y="383.47" width="122.24" height="141"/><g class="cls-5"><rect class="cls-6" x="264.57" y="359.47" width="122.24" height="176"/></g><path class="cls-4" d="M196.89,393c-71-79.07-49.64-192-43-227,6.91-36.46,13-68.53,39-100C231.53,19.2,304-14,372.89,7c69.29,21.09,109.69,89.34,118,141,6.25,38.87-6.88,60.81,10,112,8.82,26.74,17.89,37.4,19,62,1.83,40.78-20.39,72.67-25,79-46.43,63.74-155.89,73.83-233,39A198.64,198.64,0,0,1,196.89,393Z"/><ellipse class="cls-4" cx="146.89" cy="264.47" rx="41" ry="48.5" transform="translate(-88.45 74.38) rotate(-22.02)"/><path class="cls-6" d="M124.39,245.47a37,37,0,0,1,16.15-.15,39.74,39.74,0,0,1,7.92,2.49,36.35,36.35,0,0,1,7.27,4.33A39.16,39.16,0,0,1,159,255a31.57,31.57,0,0,1,2.77,3.35,23.25,23.25,0,0,1,3.76,7.87,20.44,20.44,0,0,1,.57,8.53,21.25,21.25,0,0,1-2.67,7.75c-.13-5.39-.9-10.31-3.07-14.39a9.31,9.31,0,0,0-.82-1.52c-.31-.48-.57-1-.89-1.46a30.3,30.3,0,0,0-2.12-2.7c-.7-.89-1.58-1.67-2.37-2.49s-1.7-1.58-2.68-2.24c-.47-.35-.91-.73-1.4-1.07l-1.47-1c-1-.7-2-1.23-3.06-1.87a69,69,0,0,0-6.58-3.19C134.37,248.61,129.53,247.08,124.39,245.47Z"/><path class="cls-6" d="M143.13,280.61a17.65,17.65,0,0,1-7.61-9.36,14.79,14.79,0,0,1-.79-6.63,10.65,10.65,0,0,1,.36-1.82,10.13,10.13,0,0,1,.78-1.85,8.44,8.44,0,0,1,1.28-1.77,9.07,9.07,0,0,1,1.72-1.32,11.8,11.8,0,0,1,7.12-1.42,17.37,17.37,0,0,1,6.26,1.84,18.94,18.94,0,0,1,5,3.76l1,1.15c.31.4.59.82.87,1.25a15.56,15.56,0,0,1,1.41,2.64c-1.77-1-3.35-1.94-5-2.66a30.92,30.92,0,0,0-4.93-1.74,19.19,19.19,0,0,0-4.78-.55,7.84,7.84,0,0,0-3.82.88,2.11,2.11,0,0,0-.94.88,4.51,4.51,0,0,0-.39.73c-.08.31-.22.59-.28.94a14.21,14.21,0,0,0-.23,4.62A35.66,35.66,0,0,0,143.13,280.61Z"/><path class="cls-7" d="M323.39,116.47c2.91,2.32,45,46-1,34-6.65-1.74-104.16-42.67-121.41-49.91a1.87,1.87,0,0,0-2.59,1.72c0,21.33,16,143.19-11.5,158.69-5.61,3.16-16.3-34.74-40-37-5.13-.49-6.39,1-9,0-17.57-6.94-19.25-98.9,22-154,57.87-77.31,203.68-95.51,273.5-29.5,24.26,22.94,52.5,66.5,57,104,3.37,28.08,2.49,79.09,2,77-8-34-16.73-115.91-31.5-115.5-7.14.19-7,22-18,25-23.29,6.41-68.12-78.55-69-78-.46.28,14.86,20.89,20,50,2.38,13.51,4.8,27.22-1,31-14.7,9.55-95.5-37.5-109.5-60.5"/><path class="cls-7" d="M188.81,52.12c-5.73.52-29.3,5.75-32.42,1.35-1.56-2.2,2.05-9,7.09-10.83,15.06-5.33,16.55-3,21.91-6.17,6.83-4.07-9.81-14.74,1.39-29.41C189.55,3.43,195.64-.07,200,.53c6.54.92-3.11,14.24,8.1,26.69,8.2,9.1,20.49,10.18,19.25,14.82C225.49,48.83,198,51.3,188.81,52.12Z"/><path class="cls-7" d="M477.06,197.55a24.54,24.54,0,0,0-7.6-8.84,34.67,34.67,0,0,0-10.31-5.08,55.73,55.73,0,0,0-11.34-2.35,79.48,79.48,0,0,0-11.66-.51,76.35,76.35,0,0,0-11.65,1.38,112.74,112.74,0,0,1-11.62,1.43c-3.93.28-7.91.49-12,.6a100.11,100.11,0,0,1-12.75-.26l-.71-.06-.24-.68.52-.48c6.65-6.11,14.68-9.7,23-11.94a45.13,45.13,0,0,1,12.9-1.45c4.36.13,8.7.61,13,1.08a87.08,87.08,0,0,1,12.85,2.42,62.1,62.1,0,0,1,12.23,4.86,38.55,38.55,0,0,1,10.48,8,27.77,27.77,0,0,1,3.81,5.36,26.24,26.24,0,0,1,2.25,6.06l.16.63-1.09.38Z"/><path class="cls-7" d="M241.6,235.69a25.85,25.85,0,0,1,0-6.46,27.85,27.85,0,0,1,1.68-6.37,38.61,38.61,0,0,1,7-11.2A62.45,62.45,0,0,1,260,202.8,87.24,87.24,0,0,1,271.16,196c3.88-2,7.78-3.94,11.82-5.59a45.08,45.08,0,0,1,12.58-3.18c8.61-.83,17.39-.3,25.76,3.08l.66.26,0,.72-.64.32a101,101,0,0,1-11.85,4.72c-3.87,1.33-7.67,2.54-11.44,3.66a113,113,0,0,1-11.39,2.74,76.42,76.42,0,0,0-11.39,2.82,78.9,78.9,0,0,0-10.74,4.57,55.22,55.22,0,0,0-9.79,6.19,34.79,34.79,0,0,0-7.87,8.37,24.54,24.54,0,0,0-4,11l-.08.65-1.15,0Z"/><path class="cls-8" d="M304.58,277.16a44.82,44.82,0,0,1,20.12,1.5,96.82,96.82,0,0,0-1-19c-3.82-25.67-16.44-45.07-28.18-43.33s-18.17,24-14.35,49.66a96.22,96.22,0,0,0,4.59,18.46A44.87,44.87,0,0,1,304.58,277.16Z"/><circle class="cls-9" cx="293.73" cy="234.79" r="7.5"/><path class="cls-8" d="M439.39,264.18a45,45,0,0,1,20.1,1.64,95.64,95.64,0,0,0-.85-19c-3.64-25.7-16.12-45.18-27.88-43.52s-18.33,23.85-14.69,49.55a95.83,95.83,0,0,0,4.46,18.5A44.92,44.92,0,0,1,439.39,264.18Z"/><circle class="cls-9" cx="428.83" cy="221.74" r="7.5"/><path class="cls-10" d="M286,322.05c1.43,15.4,58.8,22.66,128.28,16.23l4.33,46.81a100.49,100.49,0,0,1-43.26,6.38c-50.26-3.36-86.32-36.76-89.35-69.42"/><path class="cls-11" d="M329.78,356.49c18.82,2.52,45.2,14.88,92.72.5l.69-20.26c-40.82,14.61-85.49,3.44-104.31.92Z"/><path class="cls-10" d="M286.41,323.34A7,7,0,0,0,289.5,327a25.53,25.53,0,0,0,4.47,2.31c1.58.64,3.19,1.21,4.81,1.74s3.29,1,5,1.44,3.34.85,5,1.24,3.37.79,5.06,1.14c3.4.67,6.79,1.39,10.2,2.12,6.8,1.47,13.64,3.13,20.6,3.89a136.12,136.12,0,0,0,21,.61c3.5-.13,7-.39,10.48-.57s7-.38,10.44-.63c6.95-.47,13.87-1.21,20.77-1.95a317.07,317.07,0,0,0,41.22-6.79l.18.47a106.4,106.4,0,0,1-19.9,7.46,154.74,154.74,0,0,1-20.87,4.16,190.37,190.37,0,0,1-21.2,1.38c-3.53.05-7.07.06-10.6-.09s-7.06-.41-10.58-.71c-7-.63-14-1.27-21.06-1.73s-14.11-.53-21.16-1.39a89.14,89.14,0,0,1-10.47-1.91q-2.59-.63-5.17-1.35t-5.09-1.65a54,54,0,0,1-9.82-4.51,22.28,22.28,0,0,1-4.38-3.34,10.55,10.55,0,0,1-1.73-2.24,5.7,5.7,0,0,1-.74-2.73Z"/><circle class="cls-10" cx="256.39" cy="306.47" r="5"/><rect class="cls-4" x="93.39" y="494.47" width="489" height="142.17" rx="64.5"/><circle class="cls-12" cx="93.46" cy="578.08" r="25.61"/><path class="cls-2" d="M79.86,593.37c-3.11.15-8.44-10.7-4.87-18.75,1.55-3.52,5.1-7.16,7.09-6.54,1.6.5,1.89,3.65,1.94,4.19.32,3.51-1.73,4.48-1.66,8.09,0,2.71,1.22,2.79,1.26,5.38C83.68,589.13,81.74,593.29,79.86,593.37Z"/><ellipse class="cls-2" cx="87.53" cy="562.15" rx="4.4" ry="3.87"/><circle class="cls-12" cx="68.46" cy="582.08" r="29.61"/><path class="cls-2" d="M52.73,599.76c-3.59.17-9.75-12.37-5.63-21.68,1.8-4.07,5.9-8.28,8.2-7.56,1.85.57,2.19,4.21,2.25,4.84.37,4.06-2,5.19-1.93,9.36.06,3.13,1.42,3.23,1.47,6.22C57.15,594.85,54.91,599.66,52.73,599.76Z"/><ellipse class="cls-2" cx="61.6" cy="563.66" rx="5.09" ry="4.48"/><circle class="cls-12" cx="83.46" cy="619.08" r="29.61"/><path class="cls-2" d="M67.73,636.76c-3.59.17-9.75-12.37-5.63-21.68,1.8-4.07,5.9-8.28,8.2-7.56,1.85.57,2.19,4.21,2.25,4.84.37,4.06-2,5.19-1.93,9.36.06,3.13,1.42,3.23,1.47,6.22C72.15,631.85,69.91,636.66,67.73,636.76Z"/><ellipse class="cls-2" cx="76.6" cy="600.66" rx="5.09" ry="4.48"/><circle class="cls-12" cx="386.46" cy="677.08" r="29.61"/><path class="cls-2" d="M370.73,694.76c-3.59.17-9.75-12.37-5.63-21.68,1.8-4.07,5.9-8.28,8.2-7.56,1.85.57,2.19,4.21,2.25,4.84.37,4.06-2,5.19-1.93,9.36.06,3.13,1.42,3.23,1.47,6.22C375.15,689.85,372.91,694.66,370.73,694.76Z"/><ellipse class="cls-2" cx="379.6" cy="658.66" rx="5.09" ry="4.48"/><circle class="cls-12" cx="609.46" cy="619.08" r="29.61"/><path class="cls-2" d="M593.73,636.76c-3.59.17-9.75-12.37-5.63-21.68,1.8-4.07,5.9-8.28,8.2-7.56,1.85.57,2.19,4.21,2.25,4.84.37,4.06-2,5.19-1.93,9.36.06,3.13,1.42,3.23,1.47,6.22C598.15,631.85,595.91,636.66,593.73,636.76Z"/><ellipse class="cls-2" cx="602.6" cy="600.66" rx="5.09" ry="4.48"/><circle class="cls-12" cx="579.46" cy="565.08" r="29.61"/><path class="cls-2" d="M563.73,582.76c-3.59.17-9.75-12.37-5.63-21.68,1.8-4.07,5.9-8.28,8.2-7.56,1.85.57,2.19,4.21,2.25,4.84.37,4.06-2,5.19-1.93,9.36.06,3.13,1.42,3.23,1.47,6.22C568.15,577.85,565.91,582.66,563.73,582.76Z"/><ellipse class="cls-2" cx="572.6" cy="546.66" rx="5.09" ry="4.48"/><circle class="cls-12" cx="142.46" cy="620.08" r="41.61"/><path class="cls-2" d="M120.36,644.93c-5,.23-13.7-17.39-7.91-30.47,2.53-5.72,8.29-11.63,11.52-10.62,2.6.8,3.07,5.92,3.15,6.8.53,5.71-2.8,7.29-2.7,13.14.08,4.41,2,4.55,2.06,8.75C126.57,638,123.42,644.79,120.36,644.93Z"/><ellipse class="cls-2" cx="132.82" cy="594.2" rx="7.15" ry="6.29"/><circle class="cls-12" cx="530.12" cy="564.42" r="16.27"/><path class="cls-2" d="M521.48,574.13c-2,.1-5.36-6.79-3.1-11.91,1-2.23,3.24-4.55,4.51-4.15,1,.31,1.2,2.31,1.23,2.66.21,2.23-1.1,2.85-1.06,5.14,0,1.72.78,1.77.81,3.42C523.9,571.44,522.67,574.08,521.48,574.13Z"/><ellipse class="cls-2" cx="526.35" cy="554.3" rx="2.8" ry="2.46"/><circle class="cls-12" cx="100.46" cy="535.08" r="29.61"/><path class="cls-2" d="M84.73,552.76c-3.59.17-9.75-12.37-5.63-21.68,1.8-4.07,5.9-8.28,8.2-7.56,1.85.57,2.19,4.21,2.25,4.84.37,4.06-2,5.19-1.93,9.36.06,3.13,1.42,3.23,1.47,6.22C89.15,547.85,86.91,552.66,84.73,552.76Z"/><ellipse class="cls-2" cx="93.6" cy="516.66" rx="5.09" ry="4.48"/><circle class="cls-12" cx="309.23" cy="662.08" r="43.39"/><path class="cls-2" d="M286.2,688c-5.27.24-14.3-18.13-8.26-31.77,2.64-6,8.65-12.13,12-11.08,2.71.84,3.2,6.18,3.29,7.1.54,6-2.93,7.6-2.82,13.7.08,4.6,2.07,4.74,2.14,9.12C292.67,680.8,289.38,687.84,286.2,688Z"/><ellipse class="cls-2" cx="299.19" cy="635.1" rx="7.46" ry="6.56"/><circle class="cls-12" cx="437.73" cy="644.58" r="46.89"/><path class="cls-2" d="M412.84,672.58c-5.7.26-15.45-19.59-8.92-34.34,2.85-6.44,9.34-13.1,13-12,2.93.91,3.46,6.67,3.56,7.67.59,6.42-3.17,8.2-3,14.8.09,5,2.24,5.12,2.32,9.86C419.83,664.81,416.28,672.42,412.84,672.58Z"/><ellipse class="cls-2" cx="426.88" cy="615.42" rx="8.06" ry="7.09"/><circle class="cls-12" cx="357.73" cy="622.58" r="39.89"/><path class="cls-2" d="M336.55,646.4c-4.84.22-13.13-16.67-7.58-29.21,2.42-5.48,7.94-11.15,11-10.18,2.49.77,2.95,5.68,3,6.53.5,5.46-2.7,7-2.59,12.59.07,4.23,1.9,4.35,2,8.39C342.5,639.79,339.49,646.26,336.55,646.4Z"/><ellipse class="cls-2" cx="348.5" cy="597.77" rx="6.86" ry="6.03"/><circle class="cls-12" cx="227.73" cy="654.58" r="39.89"/><path class="cls-2" d="M206.55,678.4c-4.84.22-13.13-16.67-7.58-29.21,2.42-5.48,7.94-11.15,11-10.18,2.49.77,3,5.68,3,6.53.5,5.46-2.7,7-2.59,12.59.07,4.23,1.9,4.35,2,8.39C212.5,671.79,209.49,678.26,206.55,678.4Z"/><ellipse class="cls-2" cx="218.5" cy="629.77" rx="6.86" ry="6.03"/><circle class="cls-13" cx="302.46" cy="597.08" r="29.61"/><path class="cls-3" d="M286.73,614.76c-3.59.17-9.75-12.37-5.63-21.68,1.8-4.07,5.9-8.28,8.2-7.56,1.85.57,2.19,4.21,2.25,4.84.37,4.06-2,5.19-1.93,9.36.06,3.13,1.42,3.23,1.47,6.22C291.15,609.85,288.91,614.66,286.73,614.76Z"/><ellipse class="cls-3" cx="295.6" cy="578.66" rx="5.09" ry="4.48"/><circle class="cls-13" cx="355.35" cy="670.97" r="16.5"/><path class="cls-3" d="M346.58,680.82c-2,.09-5.43-6.9-3.13-12.08,1-2.27,3.28-4.61,4.57-4.21,1,.32,1.21,2.34,1.25,2.7.2,2.26-1.12,2.88-1.08,5.21,0,1.74.79,1.8.82,3.46C349.05,678.09,347.8,680.76,346.58,680.82Z"/><ellipse class="cls-3" cx="351.53" cy="660.71" rx="2.84" ry="2.5"/><circle class="cls-13" cx="549.35" cy="557.97" r="16.5"/><path class="cls-3" d="M540.58,567.82c-2,.09-5.43-6.9-3.13-12.08,1-2.27,3.28-4.61,4.57-4.21,1,.32,1.21,2.34,1.25,2.7.2,2.26-1.12,2.88-1.08,5.21,0,1.74.79,1.8.82,3.46C543.05,565.09,541.8,567.76,540.58,567.82Z"/><ellipse class="cls-3" cx="545.53" cy="547.71" rx="2.84" ry="2.5"/><circle class="cls-13" cx="116.62" cy="583.24" r="8.77"/><path class="cls-3" d="M112,588.48c-1.07,0-2.89-3.67-1.67-6.43.53-1.2,1.75-2.45,2.43-2.24s.65,1.25.66,1.44c.12,1.2-.59,1.53-.57,2.77,0,.93.42,1,.44,1.84C113.27,587,112.6,588.45,112,588.48Z"/><ellipse class="cls-3" cx="114.59" cy="577.78" rx="1.51" ry="1.33"/><circle class="cls-13" cx="51.62" cy="610.24" r="8.77"/><path class="cls-3" d="M47,615.48c-1.07,0-2.89-3.67-1.67-6.43.53-1.2,1.75-2.45,2.43-2.24s.65,1.25.66,1.44c.12,1.2-.59,1.53-.57,2.77,0,.93.42,1,.44,1.84C48.27,614,47.6,615.45,47,615.48Z"/><ellipse class="cls-3" cx="49.59" cy="604.78" rx="1.51" ry="1.33"/><circle class="cls-13" cx="605.35" cy="587.97" r="16.5"/><path class="cls-3" d="M596.58,597.82c-2,.09-5.43-6.9-3.13-12.08,1-2.27,3.28-4.61,4.57-4.21,1,.32,1.21,2.34,1.25,2.7.2,2.26-1.12,2.88-1.08,5.21,0,1.74.79,1.8.82,3.46C599.05,595.09,597.8,597.76,596.58,597.82Z"/><ellipse class="cls-3" cx="601.53" cy="577.71" rx="2.84" ry="2.5"/><circle class="cls-13" cx="76.35" cy="552.97" r="16.5"/><path class="cls-3" d="M67.58,562.82c-2,.09-5.43-6.9-3.13-12.08,1-2.27,3.28-4.61,4.57-4.21,1,.32,1.21,2.34,1.25,2.7.2,2.26-1.12,2.88-1.08,5.21,0,1.74.79,1.8.82,3.46C70.05,560.09,68.8,562.76,67.58,562.82Z"/><ellipse class="cls-3" cx="72.53" cy="542.71" rx="2.84" ry="2.5"/><circle class="cls-13" cx="189.46" cy="642.08" r="29.61"/><path class="cls-3" d="M173.73,659.76c-3.59.17-9.75-12.37-5.63-21.68,1.8-4.07,5.9-8.28,8.2-7.56,1.85.57,2.19,4.21,2.25,4.84.37,4.06-2,5.19-1.93,9.36.06,3.13,1.42,3.23,1.47,6.22C178.15,654.85,175.91,659.66,173.73,659.76Z"/><ellipse class="cls-3" cx="182.6" cy="623.66" rx="5.09" ry="4.48"/><circle class="cls-13" cx="469.46" cy="684.08" r="29.61"/><path class="cls-3" d="M453.73,701.76c-3.59.17-9.75-12.37-5.63-21.68,1.8-4.07,5.9-8.28,8.2-7.56,1.85.57,2.19,4.21,2.25,4.84.37,4.06-2,5.19-1.93,9.36.06,3.13,1.42,3.23,1.47,6.22C458.15,696.85,455.91,701.66,453.73,701.76Z"/><ellipse class="cls-3" cx="462.6" cy="665.66" rx="5.09" ry="4.48"/><circle class="cls-13" cx="100.46" cy="654.08" r="29.61"/><path class="cls-3" d="M84.73,671.76c-3.59.17-9.75-12.37-5.63-21.68,1.8-4.07,5.9-8.28,8.2-7.56,1.85.57,2.19,4.21,2.25,4.84.37,4.06-2,5.19-1.93,9.36.06,3.13,1.42,3.23,1.47,6.22C89.15,666.85,86.91,671.66,84.73,671.76Z"/><ellipse class="cls-3" cx="93.6" cy="635.66" rx="5.09" ry="4.48"/><circle class="cls-13" cx="567.46" cy="633.08" r="29.61"/><path class="cls-3" d="M551.73,650.76c-3.59.17-9.75-12.37-5.63-21.68,1.8-4.07,5.9-8.28,8.2-7.56,1.85.57,2.19,4.21,2.25,4.84.37,4.06-2,5.19-1.93,9.36.06,3.13,1.42,3.23,1.47,6.22C556.15,645.85,553.91,650.66,551.73,650.76Z"/><ellipse class="cls-3" cx="560.6" cy="614.66" rx="5.09" ry="4.48"/><circle class="cls-12" cx="245.73" cy="636.58" r="40.89"/><path class="cls-2" d="M224,661c-5,.22-13.47-17.09-7.77-30,2.48-5.61,8.14-11.42,11.32-10.43,2.55.79,3,5.82,3.1,6.69.51,5.6-2.76,7.15-2.66,12.91.08,4.33,2,4.46,2,8.6C230.12,654.22,227,660.86,224,661Z"/><ellipse class="cls-2" cx="236.27" cy="611.15" rx="7.03" ry="6.18"/><circle class="cls-12" cx="509.46" cy="640.08" r="46.61"/><path class="cls-2" d="M484.71,667.91c-5.66.26-15.36-19.47-8.87-34.13,2.84-6.4,9.29-13,12.91-11.9,2.91.91,3.44,6.64,3.53,7.63.59,6.39-3.14,8.16-3,14.72.08,4.94,2.22,5.09,2.3,9.8C491.66,660.19,488.13,667.76,484.71,667.91Z"/><ellipse class="cls-2" cx="498.67" cy="611.09" rx="8.01" ry="7.05"/><circle class="cls-12" cx="529.46" cy="614.08" r="46.61"/><path class="cls-2" d="M504.71,641.91c-5.66.26-15.36-19.47-8.87-34.13,2.84-6.4,9.29-13,12.91-11.9,2.91.91,3.44,6.64,3.53,7.63.59,6.39-3.14,8.16-3,14.72.08,4.94,2.22,5.09,2.3,9.8C511.66,634.19,508.13,641.76,504.71,641.91Z"/><ellipse class="cls-2" cx="518.67" cy="585.09" rx="8.01" ry="7.05"/><circle class="cls-12" cx="495.96" cy="587.58" r="34.11"/><path class="cls-2" d="M477.84,608c-4.14.19-11.23-14.26-6.48-25,2.07-4.69,6.79-9.53,9.44-8.71,2.13.67,2.52,4.86,2.59,5.58.43,4.68-2.3,6-2.22,10.78.07,3.61,1.63,3.72,1.69,7.17C482.93,602.3,480.35,607.83,477.84,608Z"/><ellipse class="cls-2" cx="488.06" cy="566.37" rx="5.86" ry="5.16"/><circle class="cls-12" cx="568.96" cy="591.58" r="34.11"/><path class="cls-2" d="M550.84,612c-4.14.19-11.23-14.26-6.48-25,2.07-4.69,6.79-9.53,9.44-8.71,2.13.67,2.52,4.86,2.59,5.58.43,4.68-2.3,6-2.22,10.78.07,3.61,1.63,3.72,1.69,7.17C555.93,606.3,553.35,611.83,550.84,612Z"/><ellipse class="cls-2" cx="561.06" cy="570.37" rx="5.86" ry="5.16"/><ellipse class="cls-2" cx="31.09" cy="615.81" rx="5.09" ry="4.48"/><ellipse class="cls-2" cx="39.09" cy="524.81" rx="5.09" ry="4.48"/><ellipse class="cls-2" cx="147.09" cy="672.81" rx="5.09" ry="4.48"/><ellipse class="cls-2" cx="259.09" cy="705.81" rx="5.09" ry="4.48"/><ellipse class="cls-2" cx="416.09" cy="705.81" rx="5.09" ry="4.48"/><ellipse class="cls-2" cx="537.09" cy="705.81" rx="5.09" ry="4.48"/><ellipse class="cls-2" cx="582.09" cy="523.81" rx="5.09" ry="4.48"/><ellipse class="cls-2" cx="74.09" cy="459.81" rx="5.09" ry="4.48"/><ellipse class="cls-2" cx="204.09" cy="720.81" rx="5.09" ry="4.48"/><ellipse class="cls-2" cx="5.09" cy="574.81" rx="5.09" ry="4.48"/><ellipse class="cls-2" cx="100.09" cy="490.81" rx="5.09" ry="4.48"/><ellipse class="cls-3" cx="348.09" cy="701.81" rx="2.84" ry="2.5"/><ellipse class="cls-3" cx="428.09" cy="730.81" rx="2.84" ry="2.5"/><ellipse class="cls-3" cx="435.09" cy="698.81" rx="2.5" ry="2.84" transform="translate(-313.72 1040.74) rotate(-82.64)"/><ellipse class="cls-3" cx="500.09" cy="710.81" rx="2.5" ry="2.84" transform="translate(-268.95 1115.67) rotate(-82.64)"/><ellipse class="cls-3" cx="600.09" cy="655.81" rx="2.5" ry="2.84" transform="translate(-214.63 300.24) rotate(-23.96)"/><ellipse class="cls-3" cx="608.67" cy="545.55" rx="3.13" ry="2.84" transform="translate(-169.11 294.22) rotate(-23.96)"/><ellipse class="cls-3" cx="573.09" cy="688.81" rx="2.5" ry="2.84" transform="matrix(0.13, -0.99, 0.99, 0.13, -183.49, 1168.89)"/><ellipse class="cls-3" cx="210.09" cy="697.81" rx="2.84" ry="2.5"/><ellipse class="cls-3" cx="132.09" cy="688.81" rx="2.84" ry="2.5"/><ellipse class="cls-3" cx="62.09" cy="660.81" rx="2.84" ry="2.5"/><ellipse class="cls-3" cx="43.09" cy="627.81" rx="2.84" ry="2.5"/><ellipse class="cls-3" cx="36.09" cy="594.81" rx="2.84" ry="2.5"/><ellipse class="cls-3" cx="63.09" cy="526.81" rx="2.84" ry="2.5"/><ellipse class="cls-3" cx="78.09" cy="490.81" rx="2.84" ry="2.5"/><ellipse class="cls-3" cx="10.09" cy="539.81" rx="2.84" ry="2.5"/><ellipse class="cls-3" cx="100.09" cy="473.81" rx="2.84" ry="2.5"/><ellipse class="cls-3" cx="276.09" cy="718.81" rx="2.84" ry="2.5"/></g></svg>