<svg xmlns="http://www.w3.org/2000/svg" xmlns:xlink="http://www.w3.org/1999/xlink" viewBox="0 0 685.85 733.3"><defs><style>.cls-1{fill:none;}.cls-2{fill:#f4bd86;}.cls-3{clip-path:url(#clip-path);}.cls-4{fill:#c68142;}.cls-5{fill:#d8a83d;}.cls-6{fill:#68332f;}.cls-7{fill:#7da9bc;}.cls-8{fill:#c7d8dd;}.cls-9{fill:#cad8dd;}.cls-10{fill:#83a9b2;}.cls-11,.cls-12{fill:#603813;}.cls-11{opacity:0.97;}.cls-13{fill:#956132;}</style><clipPath id="clip-path"><ellipse class="cls-1" cx="445.22" cy="348.42" rx="241.7" ry="124.75" transform="translate(-35.87 51.49) rotate(-6.36)"/></clipPath></defs><g id="דוש"><rect class="cls-2" x="265.57" y="381.47" width="122.24" height="141"/><g class="cls-3"><rect class="cls-4" x="265.57" y="357.47" width="122.24" height="176"/></g><path class="cls-2" d="M196.89,393c-71-79.07-49.64-192-43-227,6.91-36.46,13-68.53,39-100C231.53,19.2,304-14,372.89,7c69.29,21.09,109.69,89.34,118,141,6.25,38.87-6.88,60.81,10,112,8.82,26.74,17.89,37.4,19,62,1.83,40.78-20.39,72.67-25,79-46.43,63.74-155.89,73.83-233,39A198.64,198.64,0,0,1,196.89,393Z"/><ellipse class="cls-2" cx="146.89" cy="264.47" rx="41" ry="48.5" transform="translate(-88.45 74.38) rotate(-22.02)"/><path class="cls-4" d="M124.39,245.47a37,37,0,0,1,16.15-.15,39.74,39.74,0,0,1,7.92,2.49,36.35,36.35,0,0,1,7.27,4.33A39.16,39.16,0,0,1,159,255a31.57,31.57,0,0,1,2.77,3.35,23.25,23.25,0,0,1,3.76,7.87,20.44,20.44,0,0,1,.57,8.53,21.25,21.25,0,0,1-2.67,7.75c-.13-5.39-.9-10.31-3.07-14.39a9.31,9.31,0,0,0-.82-1.52c-.31-.48-.57-1-.89-1.46a30.3,30.3,0,0,0-2.12-2.7c-.7-.89-1.58-1.67-2.37-2.49s-1.7-1.58-2.68-2.24c-.47-.35-.91-.73-1.4-1.07l-1.47-1c-1-.7-2-1.23-3.06-1.87a69,69,0,0,0-6.58-3.19C134.37,248.61,129.53,247.08,124.39,245.47Z"/><path class="cls-4" d="M143.13,280.61a17.65,17.65,0,0,1-7.61-9.36,14.79,14.79,0,0,1-.79-6.63,10.65,10.65,0,0,1,.36-1.82,10.13,10.13,0,0,1,.78-1.85,8.44,8.44,0,0,1,1.28-1.77,9.07,9.07,0,0,1,1.72-1.32,11.8,11.8,0,0,1,7.12-1.42,17.37,17.37,0,0,1,6.26,1.84,18.94,18.94,0,0,1,5,3.76l1,1.15c.31.4.59.82.87,1.25a15.56,15.56,0,0,1,1.41,2.64c-1.77-1-3.35-1.94-5-2.66a30.92,30.92,0,0,0-4.93-1.74,19.19,19.19,0,0,0-4.78-.55,7.84,7.84,0,0,0-3.82.88,2.11,2.11,0,0,0-.94.88,4.51,4.51,0,0,0-.39.73c-.08.31-.22.59-.28.94a14.21,14.21,0,0,0-.23,4.62A35.66,35.66,0,0,0,143.13,280.61Z"/><path class="cls-5" d="M323.39,116.47c2.91,2.32,45,46-1,34-6.65-1.74-104.16-42.67-121.41-49.91a1.87,1.87,0,0,0-2.59,1.72c0,21.33,16,143.19-11.5,158.69-5.61,3.16-16.3-34.74-40-37-5.13-.49-6.39,1-9,0-17.57-6.94-19.25-98.9,22-154,57.87-77.31,203.68-95.51,273.5-29.5,24.26,22.94,52.5,66.5,57,104,3.37,28.08,2.49,79.09,2,77-8-34-16.73-115.91-31.5-115.5-7.14.19-7,22-18,25-23.29,6.41-68.12-78.55-69-78-.46.28,14.86,20.89,20,50,2.38,13.51,4.8,27.22-1,31-14.7,9.55-95.5-37.5-109.5-60.5"/><path class="cls-5" d="M188.81,52.12c-5.73.52-29.3,5.75-32.42,1.35-1.56-2.2,2.05-9,7.09-10.83,15.06-5.33,16.55-3,21.91-6.17,6.83-4.07-9.81-14.74,1.39-29.41C189.55,3.43,195.64-.07,200,.53c6.54.92-3.11,14.24,8.1,26.69,8.2,9.1,20.49,10.18,19.25,14.82C225.49,48.83,198,51.3,188.81,52.12Z"/><path class="cls-5" d="M478.28,200.49a17.61,17.61,0,0,1-2.62,6,16.44,16.44,0,0,1-5.18,4.4l-1.54.76-1.6.59a13.62,13.62,0,0,1-1.62.48c-.54.13-1.09.31-1.63.39-1.09.19-2.2.41-3.29.49s-2.18.2-3.27.23a78.52,78.52,0,0,1-12.8-.84c-4.18-.64-8.27-1.48-12.33-2.41s-8.14-1.72-12.16-2.66a58.37,58.37,0,0,1-11.6-4,98.27,98.27,0,0,1-10.81-6,65.06,65.06,0,0,1-10.13-7.79l-.52-.5.24-.66.71-.07a58.57,58.57,0,0,1,12.82.38,99.17,99.17,0,0,1,12.1,2.36,64.87,64.87,0,0,1,11.38,4.1c3.65,1.7,7.27,3.47,11,4.88s7.44,2.78,11.19,3.93a71.84,71.84,0,0,0,11.27,2.78,25.54,25.54,0,0,0,11-.2,13.12,13.12,0,0,0,4.74-2.5,15.57,15.57,0,0,0,3.43-4.54l.31-.58,1.08.38Z"/><path class="cls-5" d="M240.91,231.77a18.31,18.31,0,0,0,5.22,2,11.48,11.48,0,0,0,5.16-.22c3.31-.89,6.36-3,9.29-5.4s5.85-5,8.78-7.66,6-5.27,9.07-7.87,6.16-5.32,9.37-7.89a47.56,47.56,0,0,1,10.57-6.33,62.15,62.15,0,0,1,11.83-3.75,44.21,44.21,0,0,1,12.64-.94l.72.06.23.64-.5.52a88.43,88.43,0,0,1-9.3,8.09c-3.14,2.37-6.23,4.68-9.4,6.8a76.75,76.75,0,0,1-9.85,5.75c-3.44,1.71-6.92,3.43-10.22,5.48s-6.61,4.16-9.94,6.33-6.8,4.26-10.46,6.22a47.75,47.75,0,0,1-5.8,2.61,21.16,21.16,0,0,1-6.48,1.38,15,15,0,0,1-6.56-1.2,20.75,20.75,0,0,1-5.16-3.62l-.48-.45.7-.9Z"/><path class="cls-6" d="M319.65,359.29c4.06-10.94,39.48-45.79,88.82-27.48l20.13,7.56c-9.34-6.71-20.31-13.38-31.43-15.59-37.27-7.42-68.91,12.31-77.52,35.51"/><circle class="cls-6" cx="256.39" cy="306.47" r="5"/><rect class="cls-2" x="93.39" y="494.47" width="489" height="142.17" rx="64.5"/><circle class="cls-7" cx="93.46" cy="578.08" r="25.61"/><path class="cls-8" d="M79.86,593.37c-3.11.15-8.44-10.7-4.87-18.75,1.55-3.52,5.1-7.16,7.09-6.54,1.6.5,1.89,3.65,1.94,4.19.32,3.51-1.73,4.48-1.66,8.09,0,2.71,1.22,2.79,1.26,5.38C83.68,589.13,81.74,593.29,79.86,593.37Z"/><ellipse class="cls-8" cx="87.53" cy="562.15" rx="4.4" ry="3.87"/><circle class="cls-7" cx="68.46" cy="582.08" r="29.61"/><path class="cls-8" d="M52.73,599.76c-3.59.17-9.75-12.37-5.63-21.68,1.8-4.07,5.9-8.28,8.2-7.56,1.85.57,2.19,4.21,2.25,4.84.37,4.06-2,5.19-1.93,9.36.06,3.13,1.42,3.23,1.47,6.22C57.15,594.85,54.91,599.66,52.73,599.76Z"/><ellipse class="cls-8" cx="61.6" cy="563.66" rx="5.09" ry="4.48"/><circle class="cls-7" cx="83.46" cy="619.08" r="29.61"/><path class="cls-8" d="M67.73,636.76c-3.59.17-9.75-12.37-5.63-21.68,1.8-4.07,5.9-8.28,8.2-7.56,1.85.57,2.19,4.21,2.25,4.84.37,4.06-2,5.19-1.93,9.36.06,3.13,1.42,3.23,1.47,6.22C72.15,631.85,69.91,636.66,67.73,636.76Z"/><ellipse class="cls-8" cx="76.6" cy="600.66" rx="5.09" ry="4.48"/><circle class="cls-7" cx="386.46" cy="677.08" r="29.61"/><path class="cls-8" d="M370.73,694.76c-3.59.17-9.75-12.37-5.63-21.68,1.8-4.07,5.9-8.28,8.2-7.56,1.85.57,2.19,4.21,2.25,4.84.37,4.06-2,5.19-1.93,9.36.06,3.13,1.42,3.23,1.47,6.22C375.15,689.85,372.91,694.66,370.73,694.76Z"/><ellipse class="cls-8" cx="379.6" cy="658.66" rx="5.09" ry="4.48"/><circle class="cls-7" cx="609.46" cy="619.08" r="29.61"/><path class="cls-8" d="M593.73,636.76c-3.59.17-9.75-12.37-5.63-21.68,1.8-4.07,5.9-8.28,8.2-7.56,1.85.57,2.19,4.21,2.25,4.84.37,4.06-2,5.19-1.93,9.36.06,3.13,1.42,3.23,1.47,6.22C598.15,631.85,595.91,636.66,593.73,636.76Z"/><ellipse class="cls-8" cx="602.6" cy="600.66" rx="5.09" ry="4.48"/><circle class="cls-7" cx="579.46" cy="565.08" r="29.61"/><path class="cls-8" d="M563.73,582.76c-3.59.17-9.75-12.37-5.63-21.68,1.8-4.07,5.9-8.28,8.2-7.56,1.85.57,2.19,4.21,2.25,4.84.37,4.06-2,5.19-1.93,9.36.06,3.13,1.42,3.23,1.47,6.22C568.15,577.85,565.91,582.66,563.73,582.76Z"/><ellipse class="cls-8" cx="572.6" cy="546.66" rx="5.09" ry="4.48"/><circle class="cls-7" cx="142.46" cy="620.08" r="41.61"/><path class="cls-8" d="M120.36,644.93c-5,.23-13.7-17.39-7.91-30.47,2.53-5.72,8.29-11.63,11.52-10.62,2.6.8,3.07,5.92,3.15,6.8.53,5.71-2.8,7.29-2.7,13.14.08,4.41,2,4.55,2.06,8.75C126.57,638,123.42,644.79,120.36,644.93Z"/><ellipse class="cls-8" cx="132.82" cy="594.2" rx="7.15" ry="6.29"/><circle class="cls-7" cx="530.12" cy="564.42" r="16.27"/><path class="cls-8" d="M521.48,574.13c-2,.1-5.36-6.79-3.1-11.91,1-2.23,3.24-4.55,4.51-4.15,1,.31,1.2,2.31,1.23,2.66.21,2.23-1.1,2.85-1.06,5.14,0,1.72.78,1.77.81,3.42C523.9,571.44,522.67,574.08,521.48,574.13Z"/><ellipse class="cls-8" cx="526.35" cy="554.3" rx="2.8" ry="2.46"/><circle class="cls-7" cx="100.46" cy="535.08" r="29.61"/><path class="cls-8" d="M84.73,552.76c-3.59.17-9.75-12.37-5.63-21.68,1.8-4.07,5.9-8.28,8.2-7.56,1.85.57,2.19,4.21,2.25,4.84.37,4.06-2,5.19-1.93,9.36.06,3.13,1.42,3.23,1.47,6.22C89.15,547.85,86.91,552.66,84.73,552.76Z"/><ellipse class="cls-8" cx="93.6" cy="516.66" rx="5.09" ry="4.48"/><circle class="cls-7" cx="309.23" cy="662.08" r="43.39"/><path class="cls-8" d="M286.2,688c-5.27.24-14.3-18.13-8.26-31.77,2.64-6,8.65-12.13,12-11.08,2.71.84,3.2,6.18,3.29,7.1.54,6-2.93,7.6-2.82,13.7.08,4.6,2.07,4.74,2.14,9.12C292.67,680.8,289.38,687.84,286.2,688Z"/><ellipse class="cls-8" cx="299.19" cy="635.1" rx="7.46" ry="6.56"/><circle class="cls-7" cx="437.73" cy="644.58" r="46.89"/><path class="cls-8" d="M412.84,672.58c-5.7.26-15.45-19.59-8.92-34.34,2.85-6.44,9.34-13.1,13-12,2.93.91,3.46,6.67,3.56,7.67.59,6.42-3.17,8.2-3,14.8.09,5,2.24,5.12,2.32,9.86C419.83,664.81,416.28,672.42,412.84,672.58Z"/><ellipse class="cls-8" cx="426.88" cy="615.42" rx="8.06" ry="7.09"/><circle class="cls-7" cx="357.73" cy="622.58" r="39.89"/><path class="cls-8" d="M336.55,646.4c-4.84.22-13.13-16.67-7.58-29.21,2.42-5.48,7.94-11.15,11-10.18,2.49.77,2.95,5.68,3,6.53.5,5.46-2.7,7-2.59,12.59.07,4.23,1.9,4.35,2,8.39C342.5,639.79,339.49,646.26,336.55,646.4Z"/><ellipse class="cls-8" cx="348.5" cy="597.77" rx="6.86" ry="6.03"/><circle class="cls-7" cx="227.73" cy="654.58" r="39.89"/><path class="cls-8" d="M206.55,678.4c-4.84.22-13.13-16.67-7.58-29.21,2.42-5.48,7.94-11.15,11-10.18,2.49.77,3,5.68,3,6.53.5,5.46-2.7,7-2.59,12.59.07,4.23,1.9,4.35,2,8.39C212.5,671.79,209.49,678.26,206.55,678.4Z"/><ellipse class="cls-8" cx="218.5" cy="629.77" rx="6.86" ry="6.03"/><circle class="cls-9" cx="302.46" cy="597.08" r="29.61"/><path class="cls-10" d="M286.73,614.76c-3.59.17-9.75-12.37-5.63-21.68,1.8-4.07,5.9-8.28,8.2-7.56,1.85.57,2.19,4.21,2.25,4.84.37,4.06-2,5.19-1.93,9.36.06,3.13,1.42,3.23,1.47,6.22C291.15,609.85,288.91,614.66,286.73,614.76Z"/><ellipse class="cls-10" cx="295.6" cy="578.66" rx="5.09" ry="4.48"/><circle class="cls-9" cx="355.35" cy="670.97" r="16.5"/><path class="cls-10" d="M346.58,680.82c-2,.09-5.43-6.9-3.13-12.08,1-2.27,3.28-4.61,4.57-4.21,1,.32,1.21,2.34,1.25,2.7.2,2.26-1.12,2.88-1.08,5.21,0,1.74.79,1.8.82,3.46C349.05,678.09,347.8,680.76,346.58,680.82Z"/><ellipse class="cls-10" cx="351.53" cy="660.71" rx="2.84" ry="2.5"/><circle class="cls-9" cx="549.35" cy="557.97" r="16.5"/><path class="cls-10" d="M540.58,567.82c-2,.09-5.43-6.9-3.13-12.08,1-2.27,3.28-4.61,4.57-4.21,1,.32,1.21,2.34,1.25,2.7.2,2.26-1.12,2.88-1.08,5.21,0,1.74.79,1.8.82,3.46C543.05,565.09,541.8,567.76,540.58,567.82Z"/><ellipse class="cls-10" cx="545.53" cy="547.71" rx="2.84" ry="2.5"/><circle class="cls-9" cx="116.62" cy="583.24" r="8.77"/><path class="cls-10" d="M112,588.48c-1.07,0-2.89-3.67-1.67-6.43.53-1.2,1.75-2.45,2.43-2.24s.65,1.25.66,1.44c.12,1.2-.59,1.53-.57,2.77,0,.93.42,1,.44,1.84C113.27,587,112.6,588.45,112,588.48Z"/><ellipse class="cls-10" cx="114.59" cy="577.78" rx="1.51" ry="1.33"/><circle class="cls-9" cx="51.62" cy="610.24" r="8.77"/><path class="cls-10" d="M47,615.48c-1.07,0-2.89-3.67-1.67-6.43.53-1.2,1.75-2.45,2.43-2.24s.65,1.25.66,1.44c.12,1.2-.59,1.53-.57,2.77,0,.93.42,1,.44,1.84C48.27,614,47.6,615.45,47,615.48Z"/><ellipse class="cls-10" cx="49.59" cy="604.78" rx="1.51" ry="1.33"/><circle class="cls-9" cx="605.35" cy="587.97" r="16.5"/><path class="cls-10" d="M596.58,597.82c-2,.09-5.43-6.9-3.13-12.08,1-2.27,3.28-4.61,4.57-4.21,1,.32,1.21,2.34,1.25,2.7.2,2.26-1.12,2.88-1.08,5.21,0,1.74.79,1.8.82,3.46C599.05,595.09,597.8,597.76,596.58,597.82Z"/><ellipse class="cls-10" cx="601.53" cy="577.71" rx="2.84" ry="2.5"/><circle class="cls-9" cx="76.35" cy="552.97" r="16.5"/><path class="cls-10" d="M67.58,562.82c-2,.09-5.43-6.9-3.13-12.08,1-2.27,3.28-4.61,4.57-4.21,1,.32,1.21,2.34,1.25,2.7.2,2.26-1.12,2.88-1.08,5.21,0,1.74.79,1.8.82,3.46C70.05,560.09,68.8,562.76,67.58,562.82Z"/><ellipse class="cls-10" cx="72.53" cy="542.71" rx="2.84" ry="2.5"/><circle class="cls-9" cx="189.46" cy="642.08" r="29.61"/><path class="cls-10" d="M173.73,659.76c-3.59.17-9.75-12.37-5.63-21.68,1.8-4.07,5.9-8.28,8.2-7.56,1.85.57,2.19,4.21,2.25,4.84.37,4.06-2,5.19-1.93,9.36.06,3.13,1.42,3.23,1.47,6.22C178.15,654.85,175.91,659.66,173.73,659.76Z"/><ellipse class="cls-10" cx="182.6" cy="623.66" rx="5.09" ry="4.48"/><circle class="cls-9" cx="469.46" cy="684.08" r="29.61"/><path class="cls-10" d="M453.73,701.76c-3.59.17-9.75-12.37-5.63-21.68,1.8-4.07,5.9-8.28,8.2-7.56,1.85.57,2.19,4.21,2.25,4.84.37,4.06-2,5.19-1.93,9.36.06,3.13,1.42,3.23,1.47,6.22C458.15,696.85,455.91,701.66,453.73,701.76Z"/><ellipse class="cls-10" cx="462.6" cy="665.66" rx="5.09" ry="4.48"/><circle class="cls-9" cx="100.46" cy="654.08" r="29.61"/><path class="cls-10" d="M84.73,671.76c-3.59.17-9.75-12.37-5.63-21.68,1.8-4.07,5.9-8.28,8.2-7.56,1.85.57,2.19,4.21,2.25,4.84.37,4.06-2,5.19-1.93,9.36.06,3.13,1.42,3.23,1.47,6.22C89.15,666.85,86.91,671.66,84.73,671.76Z"/><ellipse class="cls-10" cx="93.6" cy="635.66" rx="5.09" ry="4.48"/><circle class="cls-9" cx="567.46" cy="633.08" r="29.61"/><path class="cls-10" d="M551.73,650.76c-3.59.17-9.75-12.37-5.63-21.68,1.8-4.07,5.9-8.28,8.2-7.56,1.85.57,2.19,4.21,2.25,4.84.37,4.06-2,5.19-1.93,9.36.06,3.13,1.42,3.23,1.47,6.22C556.15,645.85,553.91,650.66,551.73,650.76Z"/><ellipse class="cls-10" cx="560.6" cy="614.66" rx="5.09" ry="4.48"/><circle class="cls-7" cx="245.73" cy="636.58" r="40.89"/><path class="cls-8" d="M224,661c-5,.22-13.47-17.09-7.77-30,2.48-5.61,8.14-11.42,11.32-10.43,2.55.79,3,5.82,3.1,6.69.51,5.6-2.76,7.15-2.66,12.91.08,4.33,2,4.46,2,8.6C230.12,654.22,227,660.86,224,661Z"/><ellipse class="cls-8" cx="236.27" cy="611.15" rx="7.03" ry="6.18"/><circle class="cls-7" cx="509.46" cy="640.08" r="46.61"/><path class="cls-8" d="M484.71,667.91c-5.66.26-15.36-19.47-8.87-34.13,2.84-6.4,9.29-13,12.91-11.9,2.91.91,3.44,6.64,3.53,7.63.59,6.39-3.14,8.16-3,14.72.08,4.94,2.22,5.09,2.3,9.8C491.66,660.19,488.13,667.76,484.71,667.91Z"/><ellipse class="cls-8" cx="498.67" cy="611.09" rx="8.01" ry="7.05"/><circle class="cls-7" cx="529.46" cy="614.08" r="46.61"/><path class="cls-8" d="M504.71,641.91c-5.66.26-15.36-19.47-8.87-34.13,2.84-6.4,9.29-13,12.91-11.9,2.91.91,3.44,6.64,3.53,7.63.59,6.39-3.14,8.16-3,14.72.08,4.94,2.22,5.09,2.3,9.8C511.66,634.19,508.13,641.76,504.71,641.91Z"/><ellipse class="cls-8" cx="518.67" cy="585.09" rx="8.01" ry="7.05"/><circle class="cls-7" cx="495.96" cy="587.58" r="34.11"/><path class="cls-8" d="M477.84,608c-4.14.19-11.23-14.26-6.48-25,2.07-4.69,6.79-9.53,9.44-8.71,2.13.67,2.52,4.86,2.59,5.58.43,4.68-2.3,6-2.22,10.78.07,3.61,1.63,3.72,1.69,7.17C482.93,602.3,480.35,607.83,477.84,608Z"/><ellipse class="cls-8" cx="488.06" cy="566.37" rx="5.86" ry="5.16"/><circle class="cls-7" cx="568.96" cy="591.58" r="34.11"/><path class="cls-8" d="M550.84,612c-4.14.19-11.23-14.26-6.48-25,2.07-4.69,6.79-9.53,9.44-8.71,2.13.67,2.52,4.86,2.59,5.58.43,4.68-2.3,6-2.22,10.78.07,3.61,1.63,3.72,1.69,7.17C555.93,606.3,553.35,611.83,550.84,612Z"/><ellipse class="cls-8" cx="561.06" cy="570.37" rx="5.86" ry="5.16"/><ellipse class="cls-8" cx="31.09" cy="615.81" rx="5.09" ry="4.48"/><ellipse class="cls-8" cx="39.09" cy="524.81" rx="5.09" ry="4.48"/><ellipse class="cls-8" cx="147.09" cy="672.81" rx="5.09" ry="4.48"/><ellipse class="cls-8" cx="259.09" cy="705.81" rx="5.09" ry="4.48"/><ellipse class="cls-8" cx="416.09" cy="705.81" rx="5.09" ry="4.48"/><ellipse class="cls-8" cx="537.09" cy="705.81" rx="5.09" ry="4.48"/><ellipse class="cls-8" cx="582.09" cy="523.81" rx="5.09" ry="4.48"/><ellipse class="cls-8" cx="639.09" cy="562.81" rx="5.09" ry="4.48"/><ellipse class="cls-8" cx="642.09" cy="668.81" rx="5.09" ry="4.48"/><ellipse class="cls-8" cx="74.09" cy="459.81" rx="5.09" ry="4.48"/><ellipse class="cls-8" cx="204.09" cy="720.81" rx="5.09" ry="4.48"/><ellipse class="cls-8" cx="5.09" cy="574.81" rx="5.09" ry="4.48"/><ellipse class="cls-8" cx="100.09" cy="490.81" rx="5.09" ry="4.48"/><ellipse class="cls-10" cx="348.09" cy="701.81" rx="2.84" ry="2.5"/><ellipse class="cls-10" cx="428.09" cy="730.81" rx="2.84" ry="2.5"/><ellipse class="cls-10" cx="435.09" cy="698.81" rx="2.5" ry="2.84" transform="translate(-313.72 1040.74) rotate(-82.64)"/><ellipse class="cls-10" cx="500.09" cy="710.81" rx="2.5" ry="2.84" transform="translate(-268.95 1115.67) rotate(-82.64)"/><ellipse class="cls-10" cx="634.09" cy="681.81" rx="2.5" ry="2.84" transform="matrix(0.13, -0.99, 0.99, 0.13, -123.36, 1223.28)"/><ellipse class="cls-10" cx="600.09" cy="655.81" rx="2.5" ry="2.84" transform="translate(-214.63 300.24) rotate(-23.96)"/><ellipse class="cls-10" cx="639.09" cy="581.81" rx="2.5" ry="2.84" transform="translate(-181.21 309.7) rotate(-23.96)"/><ellipse class="cls-10" cx="608.67" cy="545.55" rx="3.13" ry="2.84" transform="translate(-169.11 294.22) rotate(-23.96)"/><ellipse class="cls-10" cx="573.09" cy="688.81" rx="2.5" ry="2.84" transform="matrix(0.13, -0.99, 0.99, 0.13, -183.49, 1168.89)"/><ellipse class="cls-10" cx="210.09" cy="697.81" rx="2.84" ry="2.5"/><ellipse class="cls-10" cx="132.09" cy="688.81" rx="2.84" ry="2.5"/><ellipse class="cls-10" cx="62.09" cy="660.81" rx="2.84" ry="2.5"/><ellipse class="cls-10" cx="43.09" cy="627.81" rx="2.84" ry="2.5"/><ellipse class="cls-10" cx="36.09" cy="594.81" rx="2.84" ry="2.5"/><ellipse class="cls-10" cx="63.09" cy="526.81" rx="2.84" ry="2.5"/><ellipse class="cls-10" cx="78.09" cy="490.81" rx="2.84" ry="2.5"/><ellipse class="cls-10" cx="10.09" cy="539.81" rx="2.84" ry="2.5"/><ellipse class="cls-10" cx="100.09" cy="473.81" rx="2.84" ry="2.5"/><ellipse class="cls-10" cx="276.09" cy="718.81" rx="2.84" ry="2.5"/><path class="cls-11" d="M102,499.84c4.57-2.87,7.94-5,13-5.76,9-1.39,19.25,2.16,24.73,7.21,3.54,3.25,3.54,5.68,6.66,6.24,4.33.78,6.49-3.51,13.95-5,5.21-1.08,13-.79,16.49,2.4,4.65,4.22-2,10.1,1.9,13.93,5.67,5.66,24.33-2.83,29.8,1.92,6.24,5.41-6,26.83-20.92,27.86-15.06,1-28.67-18.94-32.66-17.05-3.07,1.46,7.19,12.21,1.9,18.74-7.09,8.74-39.41,6.53-42.48-.73-2.86-6.73,20.14-16.26,17.43-19.69-1.81-2.3-14.42-.88-24.09,4.32-11.58,6.24-12,14.15-18.07,14.17-6.76,0-14.46-9.62-11.42-14.17,2.6-3.88,11-1.11,19.66-6.48,4.71-2.94,9.74-8.47,7.93-12.73-2-4.57-10.47-4.69-10.78-8.41C94.81,504.35,97.69,502.54,102,499.84Z"/><path class="cls-11" d="M336.18,495.19c15.2-8.07,14.38-25.73,21.42-27.54,8.51-2.18,9.36,23.67,28.49,25.7,16.63,1.76,33.33-15.92,40.51-12.34,7,3.5,1.34,25.5-14.81,34.94-22.41,13.11-48.71-7.45-70,5.76-16.42,10.18-13.59,30.36-23.38,32.74-7.61,1.84-15.21-8.87-17.06-18.11-2.38-11.88,3.22-28.9,16.28-35.92C325.18,496.37,328.47,499.28,336.18,495.19Z"/><path class="cls-11" d="M517,498c8.61-.64,11-10,16.55-9.2,7.34,1,5.43,17.31,16.24,23.91,9.76,5.95,18.33-3,27,2.14,11.42,6.83,15.24,33.74,3.07,44.74-12,10.86-36.27,3.26-47.81-8.58-7.07-7.25-9.89-16.65-14.1-15.93-4.76.82-3.18,13.22-9.5,15.93-8.14,3.5-26.1-10.5-24.52-20.53,1.65-10.43,23.54-10.93,24.83-22.06.9-7.83-9-15.14-7.66-16.55S508.74,498.63,517,498Z"/><path class="cls-11" d="M239,397c8.61-.64,11-10,16.55-9.2,7.34,1,5.43,17.31,16.24,23.91,9.76,5.95,18.33-3,27,2.14,11.42,6.83,15.24,33.74,3.07,44.74-12,10.86-36.27,3.26-47.81-8.58-7.07-7.25-9.89-16.65-14.1-15.93-4.76.82-3.18,13.22-9.5,15.93-8.14,3.5-26.1-10.5-24.52-20.53,1.65-10.43,23.54-10.93,24.83-22.06.9-7.83-9.05-15.14-7.66-16.55S230.74,397.63,239,397Z"/><path class="cls-11" d="M352.56,594.28c3.18-8.56,16.43-10.85,17.93-11.09,20.26-3.25,28.31,16.36,44,12.68,14.27-3.35,17.44-21.8,27.05-20,7.29,1.4,10.44,13,10.7,14,1.4,5.39,1.77,15-3.46,18.69-6.15,4.35-13.44-4.08-21.08-.31-9.05,4.45-6,19.8-13.21,22.81-6.5,2.69-12.13-13.61-22.33-13-6.77.41-7.67,7.37-15.73,11.72-16.92,9.13-43.17-5.3-42.46-9.82.51-3.26,14.86-.42,18.87-8.24C355.78,606,350.07,601,352.56,594.28Z"/><path class="cls-12" d="M195,554.54c-.11,2.26-.39,8.27,3.67,11.83,3.74,3.28,9.38,2.9,10.31.23,1.58-4.53-9.65-17.62-12.84-16.31C195.2,550.68,195.12,552.31,195,554.54Z"/><path class="cls-12" d="M471.06,546.74c-1.94,1.17-7.09,4.28-7.79,9.63-.64,4.94,2.81,9.41,5.55,8.7,4.65-1.21,9.27-17.83,6.4-19.75C474.36,544.74,473,545.59,471.06,546.74Z"/><path class="cls-13" d="M326,258a41,41,0,0,0-13.5-4.11,14.44,14.44,0,0,0-1.74-.17l-1.73-.1a12.63,12.63,0,0,0-1.74,0l-1.72.05a12.34,12.34,0,0,0-1.72.14l-1.71.2c-1.14.12-2.24.45-3.36.66a32.91,32.91,0,0,0-3.24,1c-1.06.38-2.07.92-3.09,1.36-.52.21-1,.54-1.48.79s-1,.52-1.49.76-.95.57-1.44.83l-1.47.81c-.94.59-1.87,1.21-2.85,1.79s-1.8,1.36-2.77,2-1.77,1.48-2.71,2.22-1.73,1.63-2.72,2.42l-.43-.26a34.63,34.63,0,0,1,1.34-3.54c.61-1.09,1.26-2.19,2-3.26s1.61-2,2.46-3,1.9-1.75,2.9-2.57,2.12-1.47,3.25-2.09,2.34-1.11,3.55-1.53,2.46-.77,3.71-1l1.87-.37a17.2,17.2,0,0,1,1.88-.33c1.26-.12,2.5-.35,3.77-.38l1.89,0a14.75,14.75,0,0,1,1.88,0l1.88.15a13.12,13.12,0,0,1,1.86.23l1.84.32a16.38,16.38,0,0,1,1.82.39,39.7,39.7,0,0,1,13.3,6.14Z"/><path class="cls-13" d="M463.35,243.88a41,41,0,0,0-13.16-5.1,12.49,12.49,0,0,0-1.71-.3l-1.73-.23a14.24,14.24,0,0,0-1.73-.14L443.3,238a14.27,14.27,0,0,0-1.73,0l-1.71.07c-1.15,0-2.27.28-3.4.41s-2.22.51-3.31.77-2.13.77-3.19,1.14c-.53.17-1,.46-1.53.67s-1,.45-1.54.65-1,.5-1.5.72l-1.52.7c-1,.52-2,1.07-3,1.58S419,246,418,246.55s-1.88,1.34-2.86,2-1.85,1.49-2.9,2.2l-.41-.29a37.84,37.84,0,0,1,1.6-3.43c.69-1,1.42-2.09,2.2-3.1s1.75-1.86,2.68-2.76,2-1.6,3.08-2.34,2.23-1.31,3.4-1.85a37.49,37.49,0,0,1,3.65-1.26c1.27-.26,2.51-.59,3.77-.76l1.9-.23a13.45,13.45,0,0,1,1.89-.19c1.27,0,2.53-.17,3.79-.1l1.89.1a14.75,14.75,0,0,1,1.88.16l1.86.3a12.87,12.87,0,0,1,1.83.36l1.82.46a13.47,13.47,0,0,1,1.78.52,39.69,39.69,0,0,1,12.81,7.11Z"/><path class="cls-4" d="M467.62,244.28a2.51,2.51,0,0,1,.8-1.82,7.08,7.08,0,0,1,1.6-1.24,17.57,17.57,0,0,1,3.73-1.48,19,19,0,0,1,3.93-.76,16.21,16.21,0,0,1,4,.25v.1c-1.32.29-2.61.44-3.89.65s-2.57.29-3.84.54a16.79,16.79,0,0,0-3.69,1.14,6.78,6.78,0,0,0-1.62,1,2.35,2.35,0,0,0-.91,1.61Z"/><path class="cls-4" d="M467.31,245.42a2.57,2.57,0,0,1,1.61-1.17,6.48,6.48,0,0,1,2-.27,17.69,17.69,0,0,1,4,.57,18.59,18.59,0,0,1,3.78,1.31,16,16,0,0,1,3.33,2.2l-.05.09c-1.28-.41-2.47-.92-3.69-1.38s-2.37-1-3.6-1.45a16.76,16.76,0,0,0-3.76-.84,6.42,6.42,0,0,0-1.91.06,2.35,2.35,0,0,0-1.59.93Z"/><path class="cls-4" d="M273.4,269.88a2.33,2.33,0,0,0-1.41-1.2,6.5,6.5,0,0,0-1.86-.4,16.67,16.67,0,0,0-3.86.18c-1.28.2-2.53.56-3.8.8s-2.54.53-3.87.71l0-.09a15.93,15.93,0,0,1,3.67-1.59,18.81,18.81,0,0,1,3.95-.63,17.38,17.38,0,0,1,4,.13,7,7,0,0,1,1.93.61,2.61,2.61,0,0,1,1.37,1.44Z"/><path class="cls-4" d="M274.11,270.89a2.37,2.37,0,0,0-1.82-.33,6.2,6.2,0,0,0-1.81.59,17.11,17.11,0,0,0-3.26,2.07c-1,.82-1.91,1.75-2.89,2.59s-1.93,1.74-3,2.55l-.08-.06a16,16,0,0,1,2.39-3.21,19.31,19.31,0,0,1,3.11-2.51,17.71,17.71,0,0,1,3.54-1.9,6.93,6.93,0,0,1,2-.42,2.52,2.52,0,0,1,1.91.56Z"/></g></svg>